PathFileType	4	(X/Y/Z)	Patient4_TMGait_0pt5_01_left_12.trc.trc
DataRate	CameraRate	NumFrames	NumMarkers	Units	OrigDataRate	OrigDataStartFrame	OrigNumFrames
76.502732240437	76.502732240437	4	33	mm	76.502732240437	53	       141
Frame#	Time	L.ASIS			Sacral			L.Shoulder			Chest			R.Shoulder			Neck			R.ASIS			R.Thigh.Superior			R.Thigh.Lateral			R.Thigh.Inferior			R.Patella			L.Thigh.Superior			L.Thigh.Lateral			L.Thigh.Inferior			L.Patella			L.Shank.Superior			L.Shank.Lateral			L.Shank.Inferior			R.Shank.Superior			R.Shank.Lateral			R.Shank.Inferior			R.Heel			R.Midfoot.Superior			R.Midfoot.Lateral			R.Toe			L.Heel			L.Midfoot.Lateral			L.Midfoot.Superior			L.Toe			L.Elbow			L.Wrist			R.Elbow			R.Wrist			
		X1	Y1	Z1	X2	Y2	Z2	X3	Y3	Z3	X4	Y4	Z4	X5	Y5	Z5	X6	Y6	Z6	X7	Y7	Z7	X8	Y8	Z8	X9	Y9	Z9	X10	Y10	Z10	X11	Y11	Z11	X12	Y12	Z12	X13	Y13	Z13	X14	Y14	Z14	X15	Y15	Z15	X16	Y16	Z16	X17	Y17	Z17	X18	Y18	Z18	X19	Y19	Z19	X20	Y20	Z20	X21	Y21	Z21	X22	Y22	Z22	X23	Y23	Z23	X24	Y24	Z24	X25	Y25	Z25	X26	Y26	Z26	X27	Y27	Z27	X28	Y28	Z28	X29	Y29	Z29	X30	Y30	Z30	X31	Y31	Z31	X32	Y32	Z32	X33	Y33	Z33	

53	16.709714285714	801.387049542718	962.593104349382	271.291473617920	584.077770296457	1011.099205147186	427.289779122408	754.103667586910	1435.132579671290	232.072172644731	856.130062333170	1371.650925098602	396.476327211836	769.844319549357	1447.698523746373	568.679335023969	753.909685306802	1502.334339694056	381.617721405969	810.545082625667	955.186348721089	546.098245101407	892.622094353445	779.908877092258	518.713230999336	851.204455975032	661.129251348285	594.332546565543	939.816567408488	619.298113564172	515.488929375728	958.094804495139	506.364523719768	539.541898837676	847.219721097208	750.332253948059	308.659018024039	758.023393296205	635.604197687813	254.058555825227	838.679633647000	558.566836372200	322.052015828676	836.622305878935	489.427671281865	335.177144987751	811.933276532997	417.973691616945	328.199056598026	725.394543437977	301.203742304558	279.590374910501	774.872539723174	193.552848719162	356.357203255658	883.758242104980	431.020612082151	547.903470289828	763.675812311976	387.814378518668	607.094516309335	753.874581489187	278.261684727600	560.536330449546	555.179755601681	202.294026033842	528.517057035199	727.455063559553	166.512056218180	582.690200437962	616.525548091712	159.770135555504	611.322601767604	799.691021847865	64.510956522784	626.714118408592	645.600931859639	37.659432174661	401.193223603012	719.864988169949	34.979013033632	320.116128192176	802.978055883389	96.138042842962	346.531745522372	931.380041431935	44.855704162245	318.787394844947	787.934498916794	1084.032094703261	105.707947883614	949.936033905030	878.568615738942	98.397748431173	708.364469105527	1103.606882436122	681.747804791001	763.777628142820	848.068947609085	694.405671823253	
54	16.722785714286	801.783308408383	963.173636507739	270.482739716618	583.390680180202	1011.263845819925	425.751303091228	754.231049677754	1435.938186148910	231.875233564967	855.369026333927	1372.100859630117	396.689963253564	768.180370767241	1447.535432197293	568.638143465934	753.005923776254	1502.699781202961	381.610003991367	809.373101099849	955.634111051439	545.486198235291	892.808559283279	781.786676217422	518.314997841193	852.491010599677	662.792009527303	594.220358446079	941.542501994798	621.791225743619	515.499997906874	961.465404901253	509.726565707519	539.653200612480	845.144411693882	749.582844077932	308.157882156687	754.895580735794	635.573290523653	253.256637088636	834.569101178315	557.806904231329	321.424930949027	831.811325151399	488.809776512706	334.624754716918	806.915108558850	417.590237759807	327.707878917028	719.927908464181	301.134660014064	279.167499813460	768.823018011092	193.365411575488	356.120206711429	889.277391875705	432.823607213001	548.216979576132	770.806272390949	385.795370466516	607.605222667863	764.607649899930	275.844931224585	561.280764499330	568.544422326563	193.397137632244	529.704385562259	741.996182914929	163.094615065641	583.529956395855	631.369362592250	152.713816600206	612.344946462229	817.455926622586	63.326528194076	627.177420748244	639.007667320150	37.708185139025	401.182626367576	713.300614105125	34.977897067563	320.106489796072	796.450076478355	96.095182752070	346.493090626537	924.844432937728	44.707916654309	318.779395143148	792.052171301404	1086.296031589068	103.306681064156	963.262797655499	888.247490139338	95.642968474750	699.689124647363	1104.969029874126	680.998429945870	738.940538077949	846.651719701318	698.879464216226	
55	16.735857142857	802.160256398544	963.648672554416	269.799269413759	582.702279946615	1011.391306332767	424.313044276740	754.483483664325	1436.618942563396	231.721848922159	854.669884273349	1372.448787203533	396.985361129350	766.536714244851	1447.378267147143	568.609744202001	752.187356594063	1502.977705092199	381.606575685965	808.184296167316	955.993373834842	544.989149338342	892.694909935774	783.361565710114	518.087464843541	853.218303028444	664.187170262160	594.264766250344	942.592852557231	623.872834337694	515.646853715749	964.076370594036	512.889147203992	539.941205555792	843.093097076614	748.821943007697	307.737271911476	751.793186324366	635.521788876259	252.539612856894	830.499370765127	557.047958073312	320.848414012984	827.047295695456	488.197593002990	334.111693589547	801.937093729126	417.200793423169	327.261714898911	714.496256000312	301.073150302475	278.772434876956	762.799953034883	193.174113963734	355.891213172124	894.378503587543	434.366539510984	548.700946676443	777.857885703494	383.034257103672	608.268084865844	775.827980023999	272.764432658682	562.179908843208	583.058572856188	182.958370528472	530.979807991198	757.573734796094	159.066710531871	584.548409129428	647.444519544844	144.529741157964	613.538235235134	836.652865789830	62.077532222704	627.921163966823	632.431172699551	37.774622762003	401.169848099128	706.741834475270	34.980316898597	320.097902603297	789.945154474791	96.038949119168	346.454122755730	918.323629361880	44.502724197754	318.768879277484	795.873391998727	1088.433403238988	101.041255799451	975.928829684460	898.195322808720	93.211647187107	690.769560126658	1106.758202340209	680.607925737851	715.311386380530	847.045496652280	703.092444767660	
56	16.748928571429	802.475089057043	963.991823125475	269.261201592969	582.025885821516	1011.475041427391	422.978543954858	754.845994035864	1437.166988901401	231.612483654886	854.025709145980	1372.697733364350	397.361685267635	764.900136961756	1447.233483504375	568.593302431731	751.451793878307	1503.169391895729	381.607770512485	806.984073129962	956.262244027865	544.612793055614	892.261879363615	784.607953238429	518.016509049304	853.387332625690	665.297443177756	594.458497247301	942.948634404528	625.512936171652	515.900951499070	965.918338944654	515.823686879035	540.376771025169	841.101482325347	748.049987446263	307.396224957948	748.732500154046	635.452928257629	251.916891722959	826.481085272837	556.288212470499	320.328681520565	822.340765435597	487.593635839100	333.652756399780	797.010672654167	416.806940974728	326.871871959080	709.112666115707	301.022702344320	278.410066778913	756.808353636566	192.979556847202	355.676222486114	899.042275413426	435.663318211757	549.334452136599	784.847099863084	379.636423245895	609.081053711069	787.483726840513	269.188702464192	563.218509030191	598.721307899724	171.305708408416	532.336511184764	774.085548037309	154.659331605755	585.721475175463	664.705089141052	135.523601261893	614.887357374300	857.088257090819	61.004085085874	628.906662223389	625.874322913121	37.858114885870	401.150402913140	700.191174632119	34.987352970847	320.090406017899	783.463534083421	95.971960080129	346.417796817832	911.818592628042	44.243275017099	318.758565147407	799.431012020335	1090.420643780608	98.918796056782	987.888506148305	908.321254949783	91.113706395133	681.639136533550	1108.987877836310	680.589852974883	693.094306836786	848.960942923695	706.998111802684	
